<svg xmlns="http://www.w3.org/2000/svg" width="1085" height="1085" stroke="none" stroke-linecap="round" stroke-linejoin="round" fill="#fff" fill-rule="nonzero"><path d="M499.4334.2787l-18 1.8667C377.1668 13.0787 274.5 57.212 190.7667 127.3454c-15.4667 12.8-50.6667 48-63.4667 63.4667-69.3333 82.8-109.8666 175.7333-124.8 285.7333-3.3333 24.4-3.3333 106.7999 0 131.2 14.9334 110 55.4667 202.9333 124.8 285.7334 12.8 15.4665 48 50.6665 63.4667 63.4666 82.8 69.3333 175.7333 109.8667 285.7333 124.8 24.4001 3.3333 106.8001 3.3333 131.2001 0 110-14.9333 202.9334-55.4667 285.7333-124.8 15.4667-12.8001 50.6666-48.0001 63.4667-63.4666 69.3333-82.8001 109.8667-175.7334 124.7999-285.7334 3.3334-24.4001 3.3334-106.8 0-131.2-14.9332-110-55.4666-202.9333-124.7999-285.7333-12.8001-15.4667-48-50.6667-63.4667-63.4667C810.9001 58.2787 717.0334 17.212 608.5 2.6787c-11.7332-1.6-28.8-2.2667-60.3999-2.5333-24.1334-.2667-46.1333-.1334-48.6667.1333zm6.6667 57.6001c0 15.5999 1.0666 49.4666 2.5333 81.5999l2.1333 50L517.3 350.012l.6667 9.7334-5.9999-.6667c-3.3334-.2666-6.4001-1.0667-6.9334-1.4667-.4-.5333-1.3333-9.7332-1.8667-20.5333L492.1 78.5454l-.8-29.6001 3.7334-.5333c2-.2666 5.3333-.6666 7.4666-.8l3.6001-.1333v10.4001zm127.6-3.2001c.1333.1333.5333 40.4001.9333 89.4666l1.6 98.1334c.4 4.9333.2666 9.2-.4 9.4667-.5333.4-3.8666.4-7.2 0l-6.1333-.5333-.9334-38.8001-1.4666-52.9333c-1.0667-23.6-2-103.7333-1.2-105.7334.5333-1.4666 2-1.5999 7.5999-.6666l7.2001 1.6zM325.3 99.3454c.8 1.2 7.0667 74.6667 14.8 170.8l5.4667 66.2667c.6667 6.8.5333 7.0666-3.7333 9.7333-2.4 1.4666-4.8 2.6667-5.3334 2.6667-.4 0-1.2-3.4667-1.6-7.7334-1.8667-17.3334-9.0667-101.0667-14.1333-161.6l-6-70.9333c-.6667-5.8666-.5333-6.4 2.9333-8.2667 4.2667-2.2667 6.6666-2.6667 7.6-.9333zm367.0667 26.8c3.7334 1.3333 4.1333 2 4.9333 9.6 1.3334 13.3333.9334 77.0666-.5332 77.0666-3.8667 0-11.8667-4.5333-12.5334-7.0666-.4-1.6-.8-20.5334-.8-42.0001 0-43.3333-.5333-40.7999 8.9333-37.5999zm-246.2666 6.2666c0 3.6001.9333 23.4667 2 44.4l2.8 58.9334c.9333 23.1999 1.1999 22.4-7.7334 22.9333-4.4.1334-4.4.1334-4.6667-6.5333l-1.7334-26-3.3333-51.3334-2.8-38.7999c-.7999-6.6667-.6666-6.9334 2.9334-8.2667 2.1334-.8 5.8667-1.4667 8.2667-1.4667 4.2667-.1333 4.2667-.1333 4.2667 6.1333zm369.8666 18.2667l4.5334 1.8667.9333 17.8666c.4 9.7334.6666 30.8001.4 46.6667l-.4 29.0667-5.6-2.8-5.6-2.6667-.4-44.2666.1333-46.0001c.5334-1.9999.5334-1.9999 6 .2667zM572.5 168.1454c.8001.7999 2.6667 65.4667 2.8001 98.2667l.1332 19.7333-6.2666-.9334c-3.6-.4-6.5334-.8-6.6667-.9333-.4-.2666-4.3999-99.0667-4.3999-108.6667v-9.8666l6.7999.7999c3.8667.5334 7.2 1.2001 7.6 1.6001zm307.0667 9.4666c1.6 1.8667 1.8667 31.0667 2.2667 192.1334l-2 189.7334c-1.4667 0-3.4666-.8001-4.6667-1.7334-2-1.4667-2.2666-17.6-2.9333-175.6l-1.5999-193.2001-.8001-19.1999 3.8667 2.8c2.2666 1.6 4.7999 3.8667 5.8666 5.0666zm-119.6 27.3334c.6668.5333 1.3333 8.1333 1.4667 16.8.6666 29.4667.8 210.1333.1333 210.6666-.2667.2668-2.6666-.4-5.3333-1.4666l-4.8-2V315.4787 202.1454l3.7333.8c2 .5333 4.1333 1.3333 4.8 2zm-367.9999 7.4666c.3999 3.6001 1.0666 11.7334 1.4665 18.4001l2.1334 33.0666c1.6 23.4667 1.3333 24.9334-6.2667 24.9334-3.9999 0-4.5332-.4-5.0666-4.4001-1.3333-7.8666-6.0001-73.4667-5.3334-74.5333.6667-.9334 7.6-3.3334 10.8-3.6.8001-.1333 1.8667 2.6666 2.2668 6.1333zm-220.5334 34.0001l6.5333 65.7333 4.1333 41.4667c0 1.5999-10.2666 6.6666-11.3333 5.6-.6667-.6667-14-118.6667-14-124.0001 0-3.1999 10.2666-16.6666 11.6-15.2.4.2667 1.7333 12.1334 3.0667 26.4001zm522.8 13.9999l3.8667 2.2667.1333 28.8.4 39.0667c.2667 12-1.2 14-8.4 11.4667l-4.1333-1.4667v-11.4667c0-6.4-.4-24.9333-.9334-41.3333l-.8-29.6h3.0667c1.6 0 4.6666 1.0667 6.8 2.2666zm-464.2667 51.7334l8.8 96 4.5334 49.3334-5.2 5.2-5.0668 5.1999-.9333-10.5333-6-60.5333-8.8-88.5334-3.7333-38.3999 5.2-4.8c4.6667-4.4001 5.2-4.5334 6.1334-2.1334.5333 1.3333 2.8 23.4667 5.0666 49.2zM130.1 328.2787l17.3334 155.2 14.1333 126.6667 4 36c1.8667 15.6 1.8667 16.6667-.2667 18.2666-3.2 2.4001-4.5333 2.1334-4.5333-.6666 0-1.2-1.2-11.3334-2.6667-22.2667l-15.3333-118.6666-8-62-8.6667-66.6667-8-63.0667c-2.4-18.1333-3.8667-34.2667-3.4667-35.9999.9334-3.6001 8.8001-16.1335 9.6-15.3334.2667.4 2.9334 22.1333 5.8667 48.5333zm-40.8 57.4667l8.2667 65.0667 7.2 54.6667 2.5333 18.6666-2.8 2.4c-1.6 1.3333-3.2 1.8667-3.7333 1.3333s-1.6-5.8667-2.4-11.7333l-11.0667-76-9.4666-65.3334 3.0666-9.0666c1.6-4.9333 3.3333-8.9334 3.7333-8.9334.5334 0 2.5334 13.0668 4.6667 28.9334zm732-17.4667c1.8667 1.8667 2.1334 10.1334 2.1334 71.3334v69.2h-3.7333c-8.1334 0-8 2-8.5334-73.7334l-.4-68.9333h4.2667c2.2667 0 5.2.9333 6.2666 2.1333zm-291.8666 23.8667c30.1333 4.5333 56.4 12.9333 82.4 26.2667 16.8 8.6666 24.8 14.6666 43.4667 32.5333 27.7333 26.5334 44.8 49.7333 60.8 82.5333 23.3333 47.7334 32.3999 90 43.8666 203.3334 5.2 50.8 12.0001 142.9334 13.4667 180.6665.4 10.9335 1.3334 28.9335 2.1333 40 1.4667 23.4668 3.2 20.2668-17.4666 30.2668-28.6667 13.8668-56.2667 23.4668-92.6668 32.4001-44.5332 10.9332-73.3333 14.4-117.3332 14.5332l-32 .1333.2666-15.3332c0-8.4001.8-28.0002 1.6-43.3334 4.0001-74.2667 3.2-168-2-220-2.9333-29.8667-8.6667-66.1334-11.8667-74.1334-.6667-1.7333 2.4-3.1999 15.6-7.7332 24.1334-8.4001 45.0668-18.9334 48.2667-24.1334 5.7334-9.8667-4.5333-24-17.6-24-2.2666 0-9.0667 2.4001-15.3333 5.2001-29.8667 13.7332-89.7333 29.8666-124.2667 33.4665-23.8667 2.5334-60.9333 1.0667-86.6667-3.5999-14-2.5334-39.0666-12.0001-60-22.8-24.1333-12.5334-38.9333-29.2001-43.3333-48.9333-2.4-10.6667-1.7333-32 1.3333-44 3.3334-13.2001 12.6667-32.4001 21.2001-43.6001 38-50 116.3999-93.3333 196.7999-108.5334 25.6001-4.7999 61.8668-5.3332 89.3334-1.1999zm411.3332 4.1333c4.8001 2 5.3334 2.5334 5.3334 7.0666.2667 36.4001-.5333 119.6001-1.1999 123.0667-.1333 1.2-7.0667 1.3334-10 .2667-1.8666-.6666-2.1333-7.8666-2.1333-66.6667 0-42.1333.5333-65.8666 1.3332-65.8666.6668 0 3.7334.9333 6.6666 2.1333zm58.2668 73.2l4.8 2-.9333 110.4001c-1.0667 140.6666-1.2001 144.8-6.2668 156.9333-8.2666 19.8666-7.8665 23.8667-7.0666-63.3333l1.1999-98c.2668-10.2668.5335-39.2001.6668-64.4001 0-30.3999.4-45.5999 1.3334-45.5999.8 0 3.5999.9333 6.2666 1.9999zm-801.8667 33.2001c.8 10.7999.5334 11.8666-3.3333 20.3999l-4.2667 9.0667-1.6-13.3333c-2.5333-21.3333-2.5333-22.2667 2.5333-25.4668 2.2667-1.5999 4.6667-2.6666 5.0667-2.3999s1.2 5.6 1.6 11.7334zm-82.4 80.3999c1.2 10.9334 10.5333 83.4667 15.3333 119.0667 7.2 55.0666 7.7334 62.9333 4.5334 59.6-.4001-.3999-3.4667-18.9333-6.6667-41.2l-18.9333-143.8667c3.6-2.4 4.8-1.0666 5.7333 6.4zm96 61.0667c.8 3.3334 4.6667 39.4667 4.6667 43.8667 0 3.7333-4.8001 7.2-6.9334 5.0666-.6666-.6667-2.4-12-3.7333-25.0666l-3.3333-30.5333-.8001-6.6667 4.6667 5.3333c2.6667 2.9333 5.0667 6.5334 5.4667 8zm107.6 50.2666c1.4667 1.3334 2.4 6.6667 3.6 21.0668 2 25.9999 2.2667 24-3.2 24-5.6 0-5.4666.4-7.3333-23.0668-1.8667-23.8666-1.8667-23.5999 1.7333-23.5999 1.7333 0 4.0001.8 5.2 1.5999zm105.6 2c.2667 1.3334.9333 9.3334 1.4666 17.7334.4001 8.4 1.6001 27.3333 2.6668 42 3.7333 53.8667 3.8667 60.6667 1.5999 60.6667-2.5333 0-2.8-2.0001-5.7333-40l-4.4-55.0667c-1.2-14.5334-2-26.6667-1.6-26.9334 1.4667-1.5999 5.3334-.4 6 1.6zM173.3 722.012c.8 1.2001 5.8667 43.8667 12.1334 102.1333l4.1333 37.7334.6666 5.7334-3.3333-2.1333c-2.5333-1.7334-3.4666-3.4667-3.4666-6.5335 0-8.3998-5.7333-63.7332-10.1334-97.5998l-4.5333-37.7334c0-2.8 3.2-3.8667 4.5333-1.6001zm769.4668 55.7334l-.9334 55.7334-3.3334 4.9333c-7.5999 11.2-7.1999 13.3333-6.8-49.0667l.2667-57.2 4.9334-5.0666c2.6666-2.6668 5.3332-4.9334 5.8667-4.9334.3999 0 .3999 25.0666 0 55.6zm-123.3334 88.4c.6667 77.4667.5333 83.4667-1.6 85.8667-1.3334 1.4667-2.5333 2.3999-2.9333 2-.9333-1.0668-2.2668-170-1.2-170.9334.5333-.5333 1.8666-.8 3.0667-.6666 1.7332.4 2.1333 9.8666 2.6666 83.7333zm-435.4667-53.0667c.9333 8.2668 4.2666 47.8667 5.6 66.5334.8 12.5333.8 12.9333-2.1333 13.8667-1.6.5333-3.4667.4-4.0001-.2668-.9333-.9333-3.8666-30.5333-7.4666-76.1333l-.9333-10.9333h4.1333c3.8667 0 4.1334.2666 4.8 6.9333zm-104.8 46.6668c.9333.9332 1.6 4.2666 1.6 7.5999 0 3.4666 1.6 21.4666 3.3333 40.1332 5.0667 51.0667 5.4667 58.0002 3.2 56.6667-3.4666-1.9999-6.5333-5.0666-5.8666-5.8665.2666-.5334-.2667-7.2001-1.3334-14.8-.9333-7.7333-2.1333-20.2668-2.6666-28s-1.7333-21.8667-2.8-31.3335c-2.5334-23.3333-2.4-25.9999.5333-25.9999 1.3333 0 3.0666.6667 4 1.6001zm63.0667 89.7333c.4 2.9333 1.1999 13.8665 1.7333 24.2666.9333 20 .5333 21.4666-4.9333 17.3333-1.6-1.1999-2.6667-6.2667-4.2667-21.4666-2.8-27.4667-2.9333-26.4001 2.2667-25.8667 3.8667.3999 4.4.9333 5.2 5.7334zm-47.6-493.4667c-13.8667 6-14.9334 24.8-1.8667 31.4667 9.4667 4.8 19.0667 2.5333 24-5.7333 9.3333-15.2001-5.8666-32.8-22.1333-25.7334zm90.3999 12.7999c-12.8 7.8667-12.8 26.8001 0 34.6667 12.6666 7.6 29.0666-2.4 29.0666-17.6 0-14.6666-16.7999-24.5333-29.0666-17.0667z"/></svg>